<?xml version="1.0" encoding="UTF-8" standalone="no"?>
<svg
   xmlns:dc="http://purl.org/dc/elements/1.1/"
   xmlns:cc="http://creativecommons.org/ns#"
   xmlns:rdf="http://www.w3.org/1999/02/22-rdf-syntax-ns#"
   xmlns:svg="http://www.w3.org/2000/svg"
   xmlns="http://www.w3.org/2000/svg"
   xmlns:sodipodi="http://sodipodi.sourceforge.net/DTD/sodipodi-0.dtd"
   xmlns:inkscape="http://www.inkscape.org/namespaces/inkscape"
   height="512pt"
   viewBox="0 0 512 512"
   width="512pt"
   version="1.1"
   id="svg10"
   sodipodi:docname="facebook-c.svg"
   inkscape:version="1.0.2 (e86c870879, 2021-01-15, custom)">
  <metadata
     id="metadata16">
    <rdf:RDF>
      <cc:Work
         rdf:about="">
        <dc:format>image/svg+xml</dc:format>
        <dc:type
           rdf:resource="http://purl.org/dc/dcmitype/StillImage" />
      </cc:Work>
    </rdf:RDF>
  </metadata>
  <defs
     id="defs14" />
  <sodipodi:namedview
     pagecolor="#ffffff"
     bordercolor="#666666"
     borderopacity="1"
     objecttolerance="10"
     gridtolerance="10"
     guidetolerance="10"
     inkscape:pageopacity="0"
     inkscape:pageshadow="2"
     inkscape:window-width="1366"
     inkscape:window-height="712"
     id="namedview12"
     showgrid="false"
     inkscape:zoom="0.52338542"
     inkscape:cx="387.52288"
     inkscape:cy="357.00819"
     inkscape:window-x="0"
     inkscape:window-y="27"
     inkscape:window-maximized="1"
     inkscape:current-layer="svg10" />
  <path
     d="m512 256c0 141.386719-114.613281 256-256 256s-256-114.613281-256-256 114.613281-256 256-256 256 114.613281 256 256zm0 0"
     fill="#4a7aff"
     id="path2" />
  <path
     d="m267.234375 511.738281c136.171875-5.878906 244.765625-118.121093 244.765625-255.738281 0-.996094-.027344-1.988281-.039062-2.984375l-177.699219-177.703125-190 198.59375 105.566406 105.566406-48.675781 66.183594zm0 0"
     fill="#0053bf"
     id="path4" />
  <path
     d="m334.261719 75.3125v57.96875s-66.554688-9.660156-66.554688 33.277344v42.9375h60.113281l-7.511718 65.480468h-52.601563v170.679688h-66.554687v-170.679688l-56.894532-1.074218v-64.40625h55.820313v-49.378906s-3.683594-73.457032 68.703125-86.949219c30.058594-5.605469 65.480469 2.144531 65.480469 2.144531zm0 0"
     fill="#fff"
     id="path6" />
</svg>
