<svg xmlns="http://www.w3.org/2000/svg" width="63.999" height="63.999" viewBox="0 0 16.933 16.933"  xmlns:v="https://vecta.io/nano"><defs><filter id="A" x="-.031" width="1.062" y="-.037" height="1.075" color-interpolation-filters="sRGB"><feGaussianBlur stdDeviation="1.797"/></filter></defs><path d="M16.933 8.466a8.47 8.47 0 0 1-8.467 8.467A8.47 8.47 0 0 1-.001 8.466 8.47 8.47 0 0 1 8.466 0a8.47 8.47 0 0 1 8.467 8.467z" fill="#ff7f2a" paint-order="markers fill stroke"/><path d="M1625.052-1151.716c-6.818 1.213-13.195 3.334-19.122 6.379-9.852 4.955-17.577 11.903-23.175 20.843-5.486 8.832-8.227 18.847-8.227 30.049s2.741 21.273 8.227 30.213c5.598 8.832 13.269 15.778 23.009 20.841 5.967 3.035 12.397 5.136 19.288 6.312v-23.665a38.28 38.28 0 0 1-4.677-2.033c-5.71-3.124-10.189-7.432-13.435-12.925s-4.871-11.741-4.871-18.742c0-7.109 1.624-13.408 4.871-18.901s7.78-9.747 13.602-12.763a37.75 37.75 0 0 1 4.511-1.974zm12.493 18.097c-.143 0-.285.01-.425.022a4.28 4.28 0 0 0-.412.063 4.2 4.2 0 0 0-.398.101 4.16 4.16 0 0 0-.381.139 4.01 4.01 0 0 0-.362.174c-.117.064-.231.133-.341.207a4.08 4.08 0 0 0-.319.238c-.102.084-.2.173-.294.267a3.91 3.91 0 0 0-.267.294 4.33 4.33 0 0 0-.238.319 4.21 4.21 0 0 0-.207.341 4.09 4.09 0 0 0-.174.362 3.81 3.81 0 0 0-.139.381 4.21 4.21 0 0 0-.102.397 4.28 4.28 0 0 0-.062.412 3.97 3.97 0 0 0-.021.425 5.4 5.4 0 0 0 .021.425 4.59 4.59 0 0 0 .062.412c.027.135.061.268.102.397s.087.257.139.381.11.245.174.362a4.23 4.23 0 0 0 .207.342 4.06 4.06 0 0 0 .238.319 4.1 4.1 0 0 0 .267.294 4.13 4.13 0 0 0 .613.505 4.17 4.17 0 0 0 .341.207 3.98 3.98 0 0 0 .362.174 4.22 4.22 0 0 0 .381.139 4.2 4.2 0 0 0 .398.101 4.28 4.28 0 0 0 .412.063 3.97 3.97 0 0 0 .425.021h8.285a4.96 4.96 0 0 0-.425.022c-.139.015-.277.035-.412.063a3.91 3.91 0 0 0-.398.101 4.03 4.03 0 0 0-.381.139c-.124.052-.245.11-.362.174a4.57 4.57 0 0 0-.342.207 4.09 4.09 0 0 0-.319.238 4.1 4.1 0 0 0-.294.267 3.94 3.94 0 0 0-.267.294 4.13 4.13 0 0 0-.238.319 4.2 4.2 0 0 0-.207.342 4.3 4.3 0 0 0-.174.362c-.053.124-.099.251-.139.381a4.22 4.22 0 0 0-.102.398 4.28 4.28 0 0 0-.062.412 3.98 3.98 0 0 0-.021.425 5.39 5.39 0 0 0 .021.425 4.59 4.59 0 0 0 .062.412 4.47 4.47 0 0 0 .102.397 4.07 4.07 0 0 0 .139.381 4.31 4.31 0 0 0 .174.362c.064.118.133.231.207.342a4.13 4.13 0 0 0 .238.319c.084.103.173.201.267.294a4.14 4.14 0 0 0 .294.267c.103.084.209.163.319.238s.224.143.342.207a4.06 4.06 0 0 0 .362.174 4.21 4.21 0 0 0 .381.138c.13.04.263.074.398.102a3.99 3.99 0 0 0 .412.062 3.98 3.98 0 0 0 .425.022h8.285a4.95 4.95 0 0 0-.425.022 4.61 4.61 0 0 0-.412.062 3.89 3.89 0 0 0-.398.102c-.13.04-.257.087-.381.139a3.98 3.98 0 0 0-.362.174c-.117.064-.231.133-.341.207a4.09 4.09 0 0 0-.319.238 4.08 4.08 0 0 0-.294.267 4.11 4.11 0 0 0-.267.294 4.24 4.24 0 0 0-.238.319c-.074.11-.143.224-.207.341a4.05 4.05 0 0 0-.174.362c-.053.124-.099.251-.139.381a4.07 4.07 0 0 0-.102.398 4.28 4.28 0 0 0-.063.412 3.97 3.97 0 0 0-.021.425 5.39 5.39 0 0 0 .021.425 4.26 4.26 0 0 0 .063.412c.028.135.062.268.102.398s.087.257.139.381.111.245.174.362a4.26 4.26 0 0 0 .207.342 4.09 4.09 0 0 0 .505.612 3.91 3.91 0 0 0 .294.267c.102.084.208.164.319.238a4.55 4.55 0 0 0 .341.207c.117.064.238.121.362.174s.251.099.381.139a4.23 4.23 0 0 0 .398.102 4.01 4.01 0 0 0 .412.063c.139.014.281.021.425.021h1.692c1.358 0 2.45-.983 2.45-2.204v-1.934-.01-8.276-.01-8.276-.01-1.935c0-1.221-1.093-2.204-2.45-2.204h-1.692zm24.581 0c-.457 0-.775.318-.775.774v9.279c0 .457.318.774.775.774h9.279c.457 0 .774-.318.774-.774v-9.279c0-.457-.318-.774-.774-.774zm14.026 0c-.457 0-.775.318-.775.774v9.279c0 .457.318.774.775.774h9.279c.457 0 .775-.318.775-.774v-9.279c0-.457-.318-.774-.775-.774zm33.86 0h-16.57-1.692c-1.358 0-2.45.983-2.45 2.204v1.935.01 8.276.01 8.276.01 1.934c0 1.221 1.093 2.204 2.45 2.204h1.692a5.39 5.39 0 0 0 .425-.021 3.99 3.99 0 0 0 .412-.063 4.16 4.16 0 0 0 .398-.102c.13-.04.257-.086.381-.139s.245-.11.362-.174a4.26 4.26 0 0 0 .342-.207 4.03 4.03 0 0 0 .319-.238 4.06 4.06 0 0 0 .294-.267 4.37 4.37 0 0 0 .267-.294c.084-.102.163-.208.238-.319a4.24 4.24 0 0 0 .207-.341c.064-.117.122-.238.174-.362a3.8 3.8 0 0 0 .139-.381c.04-.13.074-.263.102-.398a4.63 4.63 0 0 0 .063-.412 4.58 4.58 0 0 0 .021-.425 5.4 5.4 0 0 0-.021-.425 3.74 3.74 0 0 0-.063-.412 4.05 4.05 0 0 0-.102-.398c-.04-.13-.086-.257-.139-.381s-.111-.245-.174-.362a3.88 3.88 0 0 0-.207-.341 4 4 0 0 0-.238-.319 4.06 4.06 0 0 0-.267-.294c-.094-.094-.192-.183-.294-.267a4.24 4.24 0 0 0-.319-.238 4.2 4.2 0 0 0-.342-.207 4.01 4.01 0 0 0-.362-.174c-.124-.052-.251-.099-.381-.139a4.22 4.22 0 0 0-.398-.102c-.135-.027-.273-.047-.412-.062a3.97 3.97 0 0 0-.425-.022h8.285c.143 0 .285-.01.425-.022s.277-.035.412-.062a4.05 4.05 0 0 0 .397-.102 4 4 0 0 0 .381-.138 4.01 4.01 0 0 0 .362-.174c.117-.064.231-.133.341-.207a4.01 4.01 0 0 0 .319-.238 4.14 4.14 0 0 0 .561-.561c.084-.102.163-.209.238-.319a4.28 4.28 0 0 0 .207-.341c.063-.117.122-.238.174-.362a3.81 3.81 0 0 0 .139-.381 4.56 4.56 0 0 0 .102-.397c.027-.135.048-.273.062-.412a4.57 4.57 0 0 0 .021-.425 5.4 5.4 0 0 0-.021-.425 3.99 3.99 0 0 0-.062-.412 4.16 4.16 0 0 0-.102-.397 4.18 4.18 0 0 0-.139-.381c-.053-.124-.111-.245-.174-.362a3.82 3.82 0 0 0-.207-.341c-.075-.11-.154-.217-.238-.319a3.91 3.91 0 0 0-.267-.294 4.17 4.17 0 0 0-.294-.267 4.2 4.2 0 0 0-.319-.238 4.3 4.3 0 0 0-.341-.207 4.06 4.06 0 0 0-.362-.174c-.124-.052-.251-.099-.381-.139s-.262-.074-.397-.102-.273-.047-.412-.063a3.72 3.72 0 0 0-.425-.022h8.285c.143 0 .285-.01.425-.021a4 4 0 0 0 .412-.063 4.49 4.49 0 0 0 .398-.102 4.07 4.07 0 0 0 .381-.139c.124-.052.245-.11.362-.174s.231-.133.341-.207a4.03 4.03 0 0 0 .319-.238c.102-.084.2-.173.294-.267s.183-.192.267-.294a4.25 4.25 0 0 0 .238-.319c.074-.11.143-.224.207-.341a4.37 4.37 0 0 0 .174-.362c.052-.124.099-.251.139-.381a4.56 4.56 0 0 0 .102-.397 4.63 4.63 0 0 0 .062-.412 4.58 4.58 0 0 0 .022-.425c0-.143-.01-.285-.022-.425s-.034-.277-.062-.412a4.49 4.49 0 0 0-.102-.397 3.91 3.91 0 0 0-.139-.381 4.29 4.29 0 0 0-.174-.362 3.82 3.82 0 0 0-.207-.341c-.075-.11-.154-.217-.238-.319a4.37 4.37 0 0 0-.267-.294 3.93 3.93 0 0 0-.294-.267 4.2 4.2 0 0 0-.319-.238 4.27 4.27 0 0 0-.341-.207 4.05 4.05 0 0 0-.362-.174c-.124-.052-.251-.099-.381-.139s-.263-.074-.398-.102a4.29 4.29 0 0 0-.412-.063 3.98 3.98 0 0 0-.425-.022zm-47.886 14.026a.74.74 0 0 0-.775.775v9.279a.74.74 0 0 0 .775.775h9.279c.457 0 .774-.318.774-.775v-9.279c0-.457-.318-.775-.774-.775zm14.026 0a.74.74 0 0 0-.775.775v9.279a.74.74 0 0 0 .775.775h9.279a.74.74 0 0 0 .775-.775v-9.279a.74.74 0 0 0-.775-.775zm-14.801 23.371v33.121c-6.27 3.231-13.324 4.845-21.161 4.845-.786 0-1.557-.026-2.326-.061v22.337c.274 0 .54.022.815.022 8.509 0 16.961-1.239 25.358-3.717s15.787-6.031 22.169-10.662v-45.885z" opacity=".326" filter="url(#A)" transform="matrix(.071111 0 0 .071111 -107.66827 86.246227)"/><path d="M7.892 4.35a4.78 4.78 0 0 0-1.36.454c-.701.352-1.25.846-1.648 1.482-.39.628-.585 1.34-.585 2.137s.195 1.513.585 2.148a4.17 4.17 0 0 0 1.636 1.482 4.78 4.78 0 0 0 1.372.449V10.82a2.72 2.72 0 0 1-.333-.145c-.406-.222-.725-.528-.955-.919s-.346-.835-.346-1.333c0-.506.116-.953.346-1.344a2.36 2.36 0 0 1 .967-.908 2.71 2.71 0 0 1 .321-.14zm.888 1.287l-.03.002-.029.004-.028.007-.027.01-.026.012-.024.015-.023.017-.021.019-.019.021-.017.023-.015.024-.012.026c-.004.009-.007.018-.01.027l-.007.028-.004.029c-.001.01-.001.02-.001.03l.001.03.004.029.007.028.01.027.012.026.015.024.017.023.019.021.021.019.023.017.024.015c.008.005.017.009.026.012l.027.01.028.007.029.004a.3.3 0 0 0 .03.001h.589c-.01 0-.02.001-.03.002l-.029.004-.028.007-.027.01-.026.012-.024.015-.023.017-.021.019c-.007.007-.013.014-.019.021l-.017.023-.015.024-.012.026c-.004.009-.007.018-.01.027l-.007.028-.004.029c-.001.01-.001.02-.001.03l.001.03.004.029.007.028.01.027.012.026.015.024.017.023.019.021.021.019.023.017.024.015.026.012.027.01.028.007c.01.002.019.003.029.004l.03.002h.589c-.01 0-.02.001-.03.002l-.029.004-.028.007-.027.01-.026.012-.024.015-.023.017-.021.019-.019.021-.017.023-.015.024c-.005.008-.009.017-.012.026l-.01.027-.007.028c-.002.01-.003.019-.004.029s-.001.02-.001.03l.001.03.004.029.007.028.01.027.012.026.015.024.017.023.019.021a.36.36 0 0 0 .021.019l.023.017.024.015c.008.005.017.009.026.012l.027.01.028.007c.01.002.019.003.029.004a.3.3 0 0 0 .03.001h.12c.097 0 .174-.07.174-.157V5.786c0-.087-.078-.157-.174-.157zm1.748 0c-.032 0-.055.023-.055.055v.66c0 .032.023.055.055.055h.66c.032 0 .055-.023.055-.055v-.66c0-.032-.023-.055-.055-.055zm.997 0c-.032 0-.055.023-.055.055v.66c0 .032.023.055.055.055h.66c.032 0 .055-.023.055-.055v-.66c0-.032-.023-.055-.055-.055zm2.408 0h-1.298c-.097 0-.174.07-.174.157v1.457c0 .087.078.157.174.157h.12l.03-.001.029-.004.028-.007.027-.01.026-.012.024-.015c.008-.005.015-.011.023-.017l.021-.019.019-.021.017-.023.015-.024.012-.026c.004-.009.007-.018.01-.027l.007-.028.004-.029.001-.03-.001-.03-.004-.029-.007-.028-.01-.027-.012-.026c-.004-.008-.009-.016-.015-.024l-.017-.023-.019-.021-.021-.019-.023-.017-.024-.015-.026-.012-.027-.01-.028-.007-.029-.004-.03-.002h.589c.01 0 .02-.001.03-.002l.029-.004.028-.007.027-.01.026-.012.024-.015c.008-.005.015-.011.023-.017l.021-.019.019-.021.017-.023.015-.024.012-.026c.004-.009.007-.018.01-.027l.007-.028.004-.029.001-.03-.001-.03-.004-.029-.007-.028-.01-.027-.012-.026c-.004-.008-.009-.016-.015-.024l-.017-.023-.019-.021-.021-.019-.023-.017-.024-.015-.026-.012-.027-.01-.028-.007-.029-.004-.03-.002h.589l.03-.001.029-.004.028-.007c.009-.003.018-.006.027-.01l.026-.012.024-.015c.008-.005.015-.011.023-.017l.021-.019.019-.021.017-.023.015-.024.012-.026.01-.027.007-.028.004-.029.002-.03-.002-.03-.004-.029-.007-.028-.01-.027-.012-.026c-.004-.008-.009-.016-.015-.024l-.017-.023-.019-.021-.021-.019-.023-.017-.024-.015c-.008-.005-.017-.009-.026-.012l-.027-.01-.028-.007c-.01-.002-.019-.003-.029-.004l-.03-.002zm-3.405.997c-.032 0-.055.023-.055.055v.66c0 .032.023.055.055.055h.66c.032 0 .055-.023.055-.055v-.66c0-.032-.023-.055-.055-.055zm.997 0c-.032 0-.055.023-.055.055v.66c0 .032.023.055.055.055h.66c.032 0 .055-.023.055-.055v-.66c0-.032-.023-.055-.055-.055zm-1.052 1.662v2.355c-.446.23-.947.345-1.505.345l-.165-.004v1.588l.058.002c.605 0 1.206-.088 1.803-.264a5.13 5.13 0 0 0 1.576-.758V8.296z" fill="#2514b3"/></svg>