<svg xmlns="http://www.w3.org/2000/svg" xmlns:xlink="http://www.w3.org/1999/xlink" width="67.5" height="57.5" viewBox="0 0 17.859 15.214" xmlns:v="https://vecta.io/nano"><path d="M5.368 0c-.225 0-.407.181-.407.407v5.801c0 .225.181.407.407.407h7.124c.225 0 .407-.181.407-.407V.407c0-.225-.181-.407-.407-.407h-2.57v3.307l-.992-.661-.992.661V0z" paint-order="markers fill stroke"/><use xlink:href="#B" paint-order="markers fill stroke"/><use xlink:href="#B" x="-9.921" paint-order="markers fill stroke"/><defs ><path id="B" d="M10.328 8.599c-.225 0-.407.181-.407.407v5.801c0 .225.181.407.407.407h7.124c.225 0 .407-.181.407-.407V9.006c0-.225-.181-.407-.407-.407h-2.57v3.307l-.992-.661-.992.661V8.599z"/></defs></svg>