<?xml version="1.0" encoding="UTF-8" standalone="no"?>
<svg
   xmlns:dc="http://purl.org/dc/elements/1.1/"
   xmlns:cc="http://creativecommons.org/ns#"
   xmlns:rdf="http://www.w3.org/1999/02/22-rdf-syntax-ns#"
   xmlns:svg="http://www.w3.org/2000/svg"
   xmlns="http://www.w3.org/2000/svg"
   xmlns:sodipodi="http://sodipodi.sourceforge.net/DTD/sodipodi-0.dtd"
   xmlns:inkscape="http://www.inkscape.org/namespaces/inkscape"
   height="490.21094pt"
   viewBox="-1 0 487.98831 490.21094"
   width="487.98831pt"
   version="1.1"
   id="svg14"
   sodipodi:docname="whatsapp-c.svg"
   inkscape:version="1.0.2 (e86c870879, 2021-01-15, custom)">
  <metadata
     id="metadata20">
    <rdf:RDF>
      <cc:Work
         rdf:about="">
        <dc:format>image/svg+xml</dc:format>
        <dc:type
           rdf:resource="http://purl.org/dc/dcmitype/StillImage" />
      </cc:Work>
    </rdf:RDF>
  </metadata>
  <defs
     id="defs18" />
  <sodipodi:namedview
     pagecolor="#ffffff"
     bordercolor="#666666"
     borderopacity="1"
     objecttolerance="10"
     gridtolerance="10"
     guidetolerance="10"
     inkscape:pageopacity="0"
     inkscape:pageshadow="2"
     inkscape:window-width="799"
     inkscape:window-height="712"
     id="namedview16"
     showgrid="false"
     inkscape:zoom="0.76028749"
     inkscape:cx="325.47396"
     inkscape:cy="326.80729"
     inkscape:window-x="567"
     inkscape:window-y="27"
     inkscape:window-maximized="0"
     inkscape:current-layer="svg14" />
  <path
     d="M -1,490.21094 33.46875,364.33984 C 12.207031,327.5 1.023438,285.71094 1.039063,242.89844 1.09375,108.96485 110.08594,0 244.01563,0 c 64.99218,0.02734 125.99609,25.324219 171.87109,71.238281 45.87109,45.914059 71.125,106.945309 71.10156,171.855469 -0.0586,133.92969 -109.0664,242.91016 -242.97265,242.91016 -0.008,0 0.004,0 0,0 h -0.10547 c -40.66407,-0.0156 -80.61719,-10.21485 -116.10547,-29.57032 z m 134.76953,-77.75 7.37891,4.37109 c 31,18.39844 66.54297,28.12891 102.78906,28.14844 h 0.0781 c 111.30468,0 201.89843,-90.57813 201.94531,-201.90234 0.0196,-53.94922 -20.96482,-104.67969 -59.09372,-142.83985 -38.13281,-38.160155 -88.83203,-59.187499 -142.77735,-59.210936 -111.39453,0 -201.984371,90.566406 -202.02734,201.886716 -0.01563,38.14844 10.65625,75.29688 30.875,107.44532 L 77.742188,358 57.335938,432.5 Z m 0,0"
     fill="#ffffff"
     id="path4" />
  <path
     d="M 7.449219,481.73047 40.726563,360.21094 C 20.195313,324.64844 9.402344,284.30078 9.414063,242.97656 9.464844,113.67969 114.6875,8.488281 243.97266,8.488281 c 62.75,0.02734 121.64453,24.449219 165.92187,68.773438 44.28906,44.324221 68.66406,103.242191 68.64063,165.898441 -0.0547,129.30078 -105.28125,234.5039 -234.55078,234.5039 -0.0117,0 0.004,0 0,0 h -0.10547 C 204.625,477.64846 166.05078,467.79688 131.79297,449.125 Z m 0,0"
     fill="#64b161"
     id="path6" />
  <g
     fill="#ffffff"
     id="g12"
     transform="translate(-11.894531,-10.894531)">
    <path
       d="m 10.894531,501.10547 34.46875,-125.8711 C 24.101562,338.39453 12.917969,296.60547 12.933594,253.79297 12.988281,119.85938 121.98047,10.894531 255.91016,10.894531 c 64.99218,0.02734 125.99609,25.324219 171.87109,71.238281 45.87109,45.914058 71.125,106.945308 71.10156,171.855468 -0.0586,133.92969 -109.0664,242.91016 -242.97265,242.91016 -0.008,0 0.004,0 0,0 h -0.10547 c -40.66407,-0.0156 -80.61719,-10.21485 -116.10547,-29.57032 z m 134.769529,-77.75 7.37891,4.37109 c 31,18.39844 66.54297,28.12891 102.78906,28.14844 h 0.0781 c 111.30468,0 201.89843,-90.57813 201.94531,-201.90234 C 457.875,200.02344 436.89062,149.29297 398.76172,111.13281 360.62891,72.972656 309.92969,51.945312 255.98437,51.921875 144.58984,51.921875 54,142.48828 53.957031,253.80859 c -0.01563,38.14844 10.65625,75.29688 30.875,107.44532 l 4.804688,7.64062 -20.40625,74.5 z m 0,0"
       id="path8" />
    <path
       d="m 195.18359,152.24609 c -4.54687,-10.10937 -9.33593,-10.3125 -13.66406,-10.48828 -3.53906,-0.15234 -7.58984,-0.14453 -11.63281,-0.14453 -4.04688,0 -10.625,1.52344 -16.1875,7.59766 -5.56641,6.07422 -21.25391,20.76172 -21.25391,50.63281 0,29.875 21.75781,58.73828 24.79297,62.79297 3.03516,4.05078 42,67.30859 103.70703,91.64453 51.28516,20.22656 61.71875,16.20312 72.85156,15.19141 11.13282,-1.01172 35.91797,-14.6875 40.97657,-28.86329 5.0625,-14.17578 5.0625,-26.32421 3.54297,-28.86718 -1.51954,-2.52735 -5.56641,-4.04688 -11.63672,-7.08203 -6.07032,-3.03516 -35.91797,-17.72657 -41.48438,-19.75 -5.5664,-2.02735 -9.61328,-3.03516 -13.66015,3.04296 -4.05078,6.07032 -15.67579,19.74219 -19.21875,23.78907 -3.54297,4.05859 -7.08594,4.5664 -13.15625,1.52734 -6.07032,-3.04297 -25.625,-9.44922 -48.82032,-30.13281 -18.04687,-16.08985 -30.23437,-35.96485 -33.77734,-42.04297 -3.53906,-6.07031 -0.0586,-9.07031 2.66797,-12.38672 4.91016,-5.97266 13.14844,-16.71094 15.17187,-20.75781 2.02344,-4.05469 1.01172,-7.59766 -0.5039,-10.63672 -1.51953,-3.03516 -13.32031,-33.05859 -18.71485,-45.06641 z m 0,0"
       fill-rule="evenodd"
       id="path10" />
  </g>
</svg>
